<?xml version="1.0" standalone="no"?>
<!DOCTYPE svg PUBLIC "-//W3C//DTD SVG 20010904//EN"
 "http://www.w3.org/TR/2001/REC-SVG-20010904/DTD/svg10.dtd">
<svg version="1.0" xmlns="http://www.w3.org/2000/svg"
 width="960.000000pt" height="960.000000pt" viewBox="0 0 960.000000 960.000000"
 preserveAspectRatio="xMidYMid meet">
<metadata>
Created by potrace 1.11, written by Peter Selinger 2001-2013
</metadata>
<g transform="translate(0.000000,960.000000) scale(0.100000,-0.100000)"
fill="#000000" stroke="none">
<path d="M2367 8844 c-2 -2 -42 -6 -90 -9 -97 -6 -98 -6 -322 -42 -109 -17
-324 -81 -468 -140 -159 -64 -397 -184 -405 -205 -2 -4 -8 -8 -13 -8 -8 0
-135 -79 -164 -103 -5 -4 -37 -28 -70 -53 -54 -41 -96 -76 -175 -144 -107 -92
-237 -232 -328 -354 -49 -65 -150 -227 -157 -251 -12 -41 -19 -55 -26 -55 -5
0 -9 -6 -9 -14 0 -8 -9 -36 -21 -63 -12 -26 -34 -91 -50 -143 -25 -86 -32
-113 -44 -175 -2 -11 -6 -31 -10 -45 -4 -14 -8 -88 -10 -166 -4 -145 9 -234
43 -313 9 -20 16 -38 17 -41 0 -3 18 -31 39 -63 45 -67 109 -126 188 -173 56
-32 228 -95 298 -109 317 -59 418 -133 388 -282 -13 -65 -12 -63 -31 -107 -9
-21 -17 -40 -17 -42 0 -2 -45 -78 -100 -169 -109 -181 -181 -322 -203 -400
-40 -144 24 -259 188 -339 57 -28 294 -103 381 -121 75 -16 235 -70 266 -91
43 -28 70 -73 70 -119 0 -104 -164 -245 -290 -248 -80 -2 -155 46 -307 198
-130 131 -269 294 -356 420 -18 28 -37 52 -40 55 -11 9 -131 199 -131 207 1 4
-5 15 -13 23 -17 20 -60 115 -85 189 -40 119 -41 231 -2 361 22 78 22 77 24
157 1 63 -3 81 -31 138 -69 140 -208 189 -255 91 -38 -80 -40 -178 -6 -296 8
-25 15 -53 17 -62 6 -33 66 -214 95 -288 56 -140 117 -270 175 -368 24 -41 43
-76 43 -78 0 -3 8 -17 19 -32 10 -15 40 -61 67 -102 68 -106 203 -289 297
-400 112 -134 529 -546 701 -693 27 -23 136 -119 150 -132 6 -5 54 -46 106
-90 52 -44 97 -82 100 -85 3 -3 23 -19 45 -36 21 -16 46 -36 55 -44 9 -8 33
-28 54 -45 21 -16 46 -37 56 -45 10 -8 34 -28 55 -45 20 -16 54 -43 74 -60 21
-16 52 -41 70 -55 18 -14 38 -30 44 -35 44 -39 89 -66 102 -61 16 6 21 46 6
46 -9 0 -108 79 -204 164 -158 139 -212 190 -467 446 -254 255 -350 365 -350
403 0 8 16 28 36 43 19 16 41 34 47 39 7 6 44 35 82 65 151 118 199 190 201
300 1 78 -23 129 -84 176 -40 31 -173 92 -219 100 -13 3 -41 11 -61 18 -20 8
-64 22 -97 31 -33 9 -67 20 -75 23 -8 3 -19 6 -25 7 -5 0 -48 14 -95 29 -191
64 -248 111 -241 201 3 37 54 149 118 257 35 59 63 111 63 117 0 5 3 11 8 13
4 2 18 23 31 48 14 25 27 47 31 50 9 7 55 117 76 180 25 77 24 201 -3 260 -25
57 -82 112 -148 145 -41 20 -382 133 -495 163 -97 27 -201 117 -250 215 -39
80 -67 242 -46 275 9 15 26 16 26 1 0 -15 57 -96 100 -143 75 -81 186 -125
312 -121 119 3 142 10 354 106 237 106 308 121 383 78 76 -42 153 -196 186
-370 3 -13 9 -46 14 -74 11 -56 21 -115 26 -160 2 -16 6 -46 9 -65 2 -19 7
-62 11 -95 3 -33 8 -74 10 -91 2 -17 7 -57 11 -90 7 -73 17 -92 51 -100 49
-13 72 13 128 136 28 63 63 140 77 170 14 30 42 89 61 130 19 41 47 102 63
135 15 33 28 62 29 65 1 3 15 34 32 70 16 36 40 88 53 115 12 28 44 96 71 153
27 57 49 105 49 106 0 2 20 46 44 97 24 52 67 146 96 209 29 63 70 153 92 200
22 47 49 103 59 126 10 22 19 45 19 52 0 19 36 34 48 19 11 -13 10 -1023 -1
-1127 -23 -207 -40 -277 -108 -447 -7 -18 -17 -33 -21 -33 -4 0 -8 -5 -8 -12
0 -44 -253 -328 -425 -478 -23 -19 -69 -60 -104 -90 -129 -111 -143 -137 -111
-208 27 -60 67 -100 253 -248 94 -77 174 -142 177 -145 3 -3 43 -37 90 -74 47
-38 91 -77 98 -87 7 -9 19 -24 28 -32 31 -31 35 -74 13 -140 -12 -33 -27 -74
-34 -91 -28 -64 -94 -232 -105 -268 -15 -49 -9 -132 15 -180 18 -39 88 -115
139 -152 32 -23 173 -106 266 -156 91 -50 112 -62 128 -76 7 -7 17 -13 21 -13
4 0 25 -17 48 -38 92 -84 92 -140 2 -324 -55 -114 -73 -174 -83 -280 -10 -103
46 -240 138 -335 48 -51 279 -257 344 -308 7 -5 21 -17 30 -26 9 -9 40 -36 67
-59 59 -50 189 -166 222 -197 12 -12 32 -24 43 -28 53 -17 3 46 -195 247 -263
265 -354 377 -423 514 -17 32 -33 74 -35 91 -7 44 13 117 53 194 97 189 116
230 126 274 6 25 6 123 0 150 -33 144 -91 207 -321 344 -66 39 -127 76 -135
81 -8 6 -25 14 -38 20 -27 11 -32 16 -95 71 -67 59 -88 92 -92 144 -4 43 17
129 36 150 5 5 9 15 9 23 0 7 8 32 19 55 91 205 88 289 -17 394 -31 32 -77 74
-101 93 -24 19 -51 42 -60 51 -9 8 -43 37 -76 65 -33 27 -66 54 -73 61 -7 7
-34 29 -60 50 -69 55 -132 122 -133 141 -4 44 2 65 26 94 51 60 169 132 208
126 11 -2 29 -17 39 -34 17 -30 65 -152 73 -186 2 -9 11 -30 19 -47 9 -17 14
-31 11 -31 -9 0 45 -71 82 -107 39 -38 86 -64 196 -104 154 -57 170 -93 181
-409 2 -41 4 -81 5 -87 0 -7 15 -26 32 -42 36 -35 103 -47 200 -38 78 8 255
68 349 118 135 73 200 137 328 323 77 111 93 127 120 110 25 -16 21 -73 -17
-253 -31 -149 -34 -199 -18 -303 5 -35 60 -131 100 -175 18 -20 37 -41 42 -47
19 -22 72 -101 89 -133 36 -72 57 -210 42 -279 -2 -12 -7 -37 -10 -56 -3 -18
-13 -51 -22 -73 -9 -22 -15 -40 -14 -40 8 0 -43 -100 -71 -142 -40 -57 -172
-190 -200 -198 -10 -4 -19 -11 -19 -16 0 -5 -6 -9 -14 -9 -19 0 -94 -84 -102
-115 -11 -43 2 -90 43 -152 82 -125 85 -176 17 -249 -111 -119 -145 -161 -153
-191 -10 -37 -6 -80 11 -100 6 -7 7 -13 3 -13 -21 0 69 -99 132 -147 21 -15
44 -34 51 -40 7 -7 21 -18 31 -25 31 -22 69 -86 77 -131 8 -50 9 -105 2 -112
-11 -12 22 -149 46 -189 53 -91 156 -147 336 -182 14 -3 33 -7 42 -10 10 -3
30 -7 44 -10 15 -3 35 -9 46 -15 10 -5 18 -7 18 -3 0 3 7 1 15 -6 8 -7 15 -10
15 -7 0 12 89 -44 125 -78 35 -33 65 -107 71 -176 8 -82 8 -64 0 -207 -6 -107
-5 -123 9 -128 19 -8 34 5 39 33 26 132 22 311 -9 423 -1 3 -5 19 -10 35 -12
45 -70 138 -113 179 -20 20 -93 65 -162 100 -190 97 -206 106 -254 153 -52 50
-108 157 -111 211 -3 58 12 98 79 206 80 132 86 144 90 191 6 79 -22 122 -141
211 -139 105 -143 125 -38 231 100 101 108 128 67 213 -40 82 -38 143 7 207
17 24 31 46 31 48 0 3 16 28 35 55 19 27 35 52 35 54 0 2 18 34 40 70 48 79
91 170 100 211 1 6 6 16 12 23 6 6 8 12 5 12 -4 0 0 18 8 40 8 22 11 40 7 40
-4 0 -8 27 -9 59 -1 54 -42 175 -64 191 -12 8 -100 162 -121 210 -34 77 -70
194 -83 269 -3 19 -7 37 -9 40 -2 3 -7 31 -11 61 -3 30 -8 66 -10 80 -3 14 -7
93 -9 177 -5 129 -3 153 10 164 25 20 42 19 64 -4 47 -52 87 -98 120 -139 40
-49 192 -202 236 -236 49 -38 167 -92 214 -98 77 -9 109 -24 144 -67 81 -101
122 -235 113 -374 -3 -49 -8 -97 -10 -108 -18 -74 -39 -162 -42 -175 -2 -8 -8
-36 -14 -63 -26 -114 -34 -235 -18 -302 5 -22 11 -51 13 -65 2 -14 21 -59 41
-100 46 -94 151 -204 238 -249 60 -30 175 -74 175 -66 0 3 12 0 28 -6 15 -6
41 -12 57 -14 17 -2 45 -6 63 -9 17 -3 47 -8 65 -11 162 -27 340 -133 392
-235 18 -35 30 -164 17 -185 -4 -5 -8 -18 -9 -27 -7 -47 -173 -295 -268 -402
-6 -6 -53 -63 -105 -126 -51 -63 -96 -117 -99 -120 -3 -3 -35 -41 -71 -85 -35
-44 -67 -82 -70 -85 -3 -3 -44 -52 -90 -110 -47 -58 -88 -107 -91 -110 -28
-23 -179 -219 -179 -232 0 -28 31 -21 62 15 45 49 177 193 236 255 29 31 87
94 130 141 42 46 182 190 310 320 160 162 250 262 290 320 31 47 55 86 52 86
-2 0 3 14 13 30 71 128 56 403 -28 490 -20 20 -53 40 -82 48 -164 50 -199 91
-165 190 38 106 135 225 311 377 81 71 131 139 131 179 0 36 -31 83 -66 101
-16 8 -31 17 -34 20 -3 3 -36 24 -75 47 -97 57 -128 92 -131 145 -3 63 47 127
156 199 80 54 151 119 165 153 23 55 -17 109 -123 168 -40 22 -66 62 -58 91
12 49 103 114 186 133 57 13 63 14 120 20 158 18 271 -12 371 -96 19 -17 46
-33 60 -35 47 -10 127 17 229 76 112 65 213 203 238 324 22 106 -22 246 -107
335 -8 8 -35 47 -61 86 -106 162 -113 331 -15 361 29 9 123 9 155 0 8 -2 35
-9 60 -16 83 -23 174 -98 207 -171 39 -84 54 -220 32 -288 -4 -15 -16 -52 -25
-82 -16 -54 -32 -93 -99 -235 -18 -38 -49 -104 -68 -145 -76 -163 -92 -250
-72 -387 7 -49 33 -116 104 -271 105 -228 111 -368 25 -536 -62 -122 -153
-226 -363 -416 -52 -47 -106 -96 -121 -110 -15 -14 -68 -62 -117 -107 -49 -46
-103 -95 -120 -110 -66 -62 -164 -153 -258 -238 -54 -49 -106 -99 -116 -109
-44 -45 -6 -49 57 -5 44 30 255 196 264 208 4 5 40 35 182 149 12 9 28 24 37
32 9 8 50 42 91 75 81 65 124 101 150 125 8 8 34 28 55 44 22 17 42 32 45 36
3 3 30 25 60 50 30 25 57 47 60 50 3 3 39 34 80 70 137 118 178 175 215 295
17 55 21 91 20 165 -2 52 -8 107 -14 123 -6 15 -8 27 -6 27 7 0 -59 181 -85
231 -24 46 -68 170 -75 209 -17 94 4 208 56 314 75 151 195 238 409 297 25 7
50 14 55 15 6 2 21 5 35 8 14 3 36 8 50 11 45 11 98 21 159 31 18 3 43 8 55
10 11 2 46 7 76 10 30 3 65 7 76 9 12 2 48 7 80 11 33 3 66 8 74 9 29 4 28
-18 -6 -119 -41 -120 -40 -154 6 -250 38 -79 42 -118 17 -171 -20 -41 -111
-175 -144 -210 -10 -11 -43 -51 -73 -90 -30 -38 -57 -72 -60 -75 -21 -17 -90
-114 -90 -126 0 -38 38 -8 245 195 55 53 125 126 155 160 30 35 60 68 65 74
25 28 103 135 122 167 35 59 38 79 11 89 -13 5 -33 5 -45 0 -15 -6 -28 -3 -43
9 -34 27 -31 89 8 222 18 63 35 120 36 125 1 6 4 15 7 20 14 26 10 155 -6 201
-32 89 -28 147 16 275 22 62 42 130 43 149 4 46 -14 105 -48 159 -74 116 -80
233 -20 353 35 68 48 72 106 31 67 -48 133 -71 193 -68 57 3 135 24 135 37 0
4 7 8 15 8 18 0 98 58 137 98 80 82 134 255 125 401 -8 150 -59 258 -184 390
-40 42 -73 83 -74 91 -2 8 6 42 16 75 37 125 12 251 -58 280 -17 7 -40 11 -52
9 -62 -12 -87 -19 -160 -44 -44 -15 -101 -37 -127 -48 -73 -32 -269 -95 -275
-88 -3 3 -14 1 -24 -5 -25 -13 -81 -19 -198 -23 -181 -6 -328 47 -429 152 -57
59 -66 105 -29 146 31 36 61 38 137 9 158 -61 213 -74 325 -78 121 -4 183 10
267 61 139 85 186 262 110 417 -41 82 -167 211 -266 271 -17 10 -33 21 -36 25
-3 3 -14 11 -25 18 -185 113 -354 196 -498 244 -50 17 -99 34 -107 37 -8 3
-19 6 -25 7 -5 2 -30 8 -55 15 -25 7 -52 14 -60 15 -8 2 -46 10 -85 19 -38 8
-90 18 -115 22 -66 10 -363 13 -375 4 -5 -5 -25 -10 -43 -13 -72 -12 -172 -95
-172 -145 0 -77 167 -140 315 -118 17 2 32 5 35 7 3 1 10 3 15 4 22 3 103 44
154 78 31 21 78 41 110 48 66 13 174 6 251 -17 30 -9 64 -18 75 -20 30 -5 222
-81 295 -117 260 -126 471 -291 528 -414 53 -114 30 -230 -60 -307 -51 -44
-98 -58 -198 -60 -97 -2 -171 15 -289 69 -53 24 -112 46 -131 51 -135 28 -215
-38 -210 -175 4 -126 162 -266 360 -318 93 -24 400 -22 441 3 4 2 27 6 50 9
24 3 60 10 79 15 19 6 58 13 86 16 46 5 53 4 58 -14 4 -10 2 -31 -3 -46 -6
-14 -7 -26 -4 -26 4 0 2 -5 -5 -12 -27 -27 -3 -116 37 -138 32 -17 88 -11 169
16 102 34 102 35 137 10 118 -83 204 -197 233 -311 3 -11 5 -63 5 -115 0 -141
-47 -260 -144 -360 -113 -118 -287 -114 -405 10 -24 25 -61 123 -68 185 -10
78 -40 157 -75 197 -33 37 -41 41 -85 42 -45 0 -52 -3 -85 -41 -86 -98 -121
-282 -76 -409 23 -66 45 -100 127 -194 76 -89 101 -162 84 -248 -3 -12 -21
-55 -40 -95 -64 -131 -65 -183 -9 -295 45 -87 41 -100 -38 -119 -93 -22 -133
-36 -158 -55 -13 -10 -28 -18 -33 -18 -5 0 -16 -7 -24 -15 -9 -8 -46 -36 -82
-62 -37 -26 -73 -53 -80 -60 -7 -7 -17 -13 -22 -13 -5 0 -15 -6 -22 -13 -7 -6
-35 -22 -63 -35 -138 -63 -309 -63 -374 0 -60 58 -54 141 23 341 40 103 36
155 -19 263 -48 92 -54 129 -31 185 7 19 17 43 21 54 5 11 9 22 10 25 1 3 9
23 19 45 31 69 36 97 26 136 -13 48 -57 84 -228 186 -75 45 -142 87 -149 93
-7 5 -16 10 -21 10 -4 0 -34 23 -65 51 -65 58 -118 133 -162 229 -119 261
-202 327 -408 331 -48 1 -102 7 -120 13 -65 22 -153 80 -206 135 -82 86 -113
169 -82 224 20 35 61 46 176 46 144 0 234 38 319 132 91 101 131 223 123 376
-6 119 -17 166 -64 263 -48 101 -88 151 -198 244 -37 32 -177 101 -225 112
-19 4 -39 9 -45 10 -54 15 -86 18 -190 18 -125 1 -179 -5 -280 -30 -88 -22
-239 -81 -325 -127 -80 -43 -252 -154 -285 -184 -11 -10 -40 -34 -65 -54 -43
-35 -146 -135 -201 -196 -67 -74 -239 -304 -239 -319 0 -3 -9 -17 -20 -31 -23
-30 -26 -56 -6 -72 7 -6 57 -23 109 -36 118 -31 178 -56 229 -96 36 -29 75
-85 70 -101 -1 -5 2 -8 8 -8 5 0 10 -7 10 -15 0 -34 50 -123 85 -152 51 -42
113 -53 225 -38 103 14 142 13 198 -1 143 -37 243 -154 258 -301 5 -47 2 -69
-14 -105 -31 -70 -65 -96 -202 -155 -167 -71 -208 -112 -214 -211 -3 -56 8
-96 40 -139 13 -17 24 -35 24 -38 0 -4 13 -24 29 -44 50 -64 54 -77 41 -132
-14 -56 -11 -63 59 -139 23 -25 56 -67 74 -95 29 -45 32 -57 32 -125 -1 -65
-5 -84 -34 -141 -55 -111 -130 -181 -171 -159 -45 24 -35 91 38 240 40 81 47
105 49 162 1 37 -2 70 -8 73 -5 4 -9 14 -9 23 0 26 -59 82 -109 105 -34 15
-69 21 -131 22 -100 1 -151 21 -173 67 -8 17 -13 43 -10 57 29 154 -24 207
-177 176 -56 -11 -95 -19 -100 -20 -3 -1 -25 -5 -50 -9 -119 -20 -138 -13
-189 61 -99 145 -248 146 -399 5 -78 -73 -131 -75 -267 -8 -97 48 -119 63
-207 145 -107 100 -158 201 -162 321 -3 84 11 127 54 170 43 43 87 58 165 54
64 -2 78 -5 195 -33 147 -36 253 -45 320 -28 113 29 175 87 210 196 18 57 16
200 -4 281 -9 36 -18 74 -21 84 -8 33 -94 204 -126 248 -16 24 -37 54 -47 68
-72 105 -279 297 -457 423 -44 31 -85 61 -92 67 -7 5 -15 10 -17 10 -3 0 -37
20 -76 45 -39 25 -75 45 -80 45 -6 0 -10 5 -10 11 0 5 -4 8 -9 4 -5 -3 -12 -1
-15 4 -8 12 -160 90 -246 126 -108 46 -114 48 -130 51 -8 2 -23 7 -35 13 -19
9 -113 40 -138 45 -7 2 -19 6 -27 9 -19 8 -125 34 -165 41 -16 3 -39 7 -50 9
-26 6 -152 25 -240 36 -64 8 -460 12 -468 5z m493 -88 c36 -5 74 -10 85 -12
11 -2 40 -7 65 -10 25 -3 53 -11 63 -16 10 -5 21 -7 24 -4 3 3 13 1 22 -3 9
-5 30 -11 46 -14 32 -6 43 -9 180 -58 80 -28 398 -177 450 -211 85 -55 137
-88 141 -88 3 0 11 -6 19 -12 7 -7 25 -22 41 -33 33 -24 117 -90 159 -124 73
-62 268 -265 318 -333 60 -81 123 -194 158 -285 16 -42 22 -82 23 -143 1 -74
-3 -92 -27 -140 -18 -36 -42 -65 -70 -85 -39 -27 -49 -29 -127 -29 -47 1 -101
4 -120 8 -214 43 -307 42 -402 -5 -70 -35 -130 -112 -147 -189 -8 -32 -6 -198
2 -227 23 -85 82 -177 170 -266 81 -80 106 -100 262 -204 72 -47 133 -91 137
-97 12 -18 -16 -37 -53 -38 -50 -1 -89 5 -89 14 0 4 -6 8 -12 8 -7 0 -46 33
-88 74 -116 115 -146 127 -317 131 -100 2 -116 5 -147 26 -46 31 -55 53 -86
196 -12 55 -28 75 -73 92 -59 23 -123 -33 -175 -151 -31 -71 -92 -130 -176
-171 -77 -39 -132 -90 -164 -154 -29 -58 -39 -104 -57 -263 -7 -59 -28 -111
-52 -132 -39 -32 -41 -3 -43 590 -3 806 -8 1834 -9 1853 -1 9 -17 24 -36 35
-34 18 -35 18 -61 -2 -20 -14 -51 -74 -111 -214 -47 -107 -98 -223 -114 -258
-16 -35 -29 -69 -29 -77 0 -8 -4 -15 -10 -15 -5 0 -10 -7 -10 -15 0 -8 -13
-42 -29 -75 -16 -33 -27 -60 -24 -60 3 0 1 -6 -5 -12 -5 -7 -44 -94 -87 -193
-42 -99 -86 -199 -96 -222 -11 -24 -27 -62 -38 -85 -19 -43 -143 -329 -220
-508 -23 -52 -46 -104 -51 -115 -5 -11 -20 -46 -34 -77 -27 -63 -52 -75 -62
-30 -3 15 -10 44 -16 66 -5 21 -7 40 -4 43 3 3 1 13 -4 23 -5 9 -11 30 -14 46
-12 66 -19 93 -43 164 -84 251 -187 343 -377 336 -72 -2 -94 -8 -203 -55 -68
-30 -123 -57 -123 -62 0 -5 -3 -8 -8 -7 -8 2 -44 -15 -172 -84 -47 -25 -107
-51 -134 -57 -237 -58 -420 118 -425 409 -1 84 2 118 23 219 8 38 37 121 58
171 164 376 478 692 898 902 47 24 87 46 88 51 2 4 9 7 16 7 7 0 42 13 77 29
68 30 215 82 289 102 25 7 50 14 55 15 9 3 36 10 115 29 48 12 221 46 255 51
22 2 51 7 65 9 27 4 97 11 205 21 39 3 71 7 72 7 5 6 338 -1 393 -7z m3638
-182 c32 -8 79 -23 105 -34 81 -36 187 -128 219 -189 7 -14 15 -28 18 -31 11
-11 63 -127 67 -150 2 -14 8 -41 13 -60 12 -47 6 -156 -14 -221 -28 -98 -98
-189 -176 -229 -45 -23 -82 -30 -191 -34 -123 -5 -164 -31 -198 -122 -23 -63
-19 -135 11 -192 25 -49 173 -202 195 -202 7 0 13 -3 13 -8 0 -4 24 -21 53
-39 71 -43 110 -91 123 -153 2 -14 9 -46 14 -72 17 -85 60 -145 123 -172 30
-12 151 -48 207 -61 43 -10 145 -51 220 -87 226 -111 375 -376 302 -540 -29
-66 -75 -92 -132 -74 -36 12 -65 49 -107 135 -46 98 -86 156 -142 209 -47 45
-163 107 -216 116 -16 3 -50 9 -75 14 -93 17 -201 -1 -302 -50 -76 -37 -160
-67 -208 -74 -19 -3 -42 -7 -52 -10 -17 -5 -126 -5 -168 -1 -157 19 -317 140
-326 249 -3 36 10 50 86 89 115 59 176 113 218 194 22 42 26 62 26 130 0 44
-4 93 -8 109 -9 37 -52 122 -84 166 -33 44 -128 139 -179 176 -21 16 -40 31
-43 34 -13 14 -142 92 -195 119 -118 58 -300 132 -360 146 -5 1 -17 5 -25 8
-27 10 -144 36 -195 42 -116 15 -118 16 -103 50 6 14 15 25 20 25 4 0 8 6 8
14 0 8 3 16 8 18 4 2 34 39 67 83 52 68 221 246 296 311 80 69 232 167 351
226 110 53 307 124 378 135 14 2 48 7 75 12 73 13 217 10 283 -5z m-3141
-2276 c4 -7 13 -40 20 -72 7 -33 22 -69 34 -82 39 -41 69 -40 171 7 183 84
262 85 463 1 108 -44 225 -135 284 -220 13 -18 24 -38 25 -45 2 -7 9 -25 15
-42 33 -79 16 -177 -42 -232 -34 -32 -162 -107 -227 -133 -58 -23 -117 -68
-142 -107 -20 -33 -23 -48 -20 -113 9 -195 6 -244 -17 -305 -42 -111 -112
-233 -170 -297 -106 -115 -175 -166 -272 -198 -98 -34 -190 -28 -284 16 -81
38 -117 81 -128 154 -3 19 -9 58 -13 85 -5 28 -8 52 -9 55 0 3 -9 19 -19 37
-23 37 -65 58 -156 77 -130 28 -188 69 -221 155 -48 127 -22 179 161 320 150
116 206 224 225 436 7 80 12 119 21 166 4 24 8 49 8 54 3 27 32 94 58 132 42
62 85 99 152 133 67 34 72 35 83 18z m3601 -75 c23 -9 42 -20 42 -24 0 -5 6
-9 13 -9 7 0 24 -12 37 -27 36 -42 34 -93 -7 -182 -32 -68 -44 -98 -69 -166
-26 -74 -23 -176 9 -310 13 -52 50 -135 82 -183 19 -30 35 -56 35 -59 0 -2 6
-10 13 -17 34 -36 64 -76 92 -123 50 -82 33 -166 -43 -218 -70 -48 -197 -66
-352 -51 -44 5 -143 8 -150 6 -3 -2 -21 -4 -40 -5 -93 -7 -122 -16 -385 -112
-84 -31 -84 -31 -126 -19 -27 8 -49 42 -49 75 0 9 9 51 20 92 11 41 22 81 25
89 17 64 16 75 -7 98 -13 13 -51 41 -85 63 -50 32 -65 48 -79 85 -19 49 -19
55 -11 95 8 41 32 80 79 129 58 61 89 105 118 165 21 43 25 64 25 150 0 88 -4
107 -27 158 -16 33 -54 86 -88 121 -89 93 -81 104 55 81 22 -3 63 -10 90 -15
28 -4 95 -7 150 -6 106 3 143 13 327 90 47 20 106 39 130 42 23 4 45 8 47 10
7 6 87 -8 129 -23z m-1931 -104 c93 -49 175 -67 309 -67 66 -1 126 -2 134 -5
44 -11 120 -51 120 -64 0 -8 -16 -41 -35 -72 -82 -132 -75 -204 31 -329 103
-121 139 -243 100 -337 -9 -20 -39 -61 -68 -91 -29 -31 -55 -61 -57 -67 -2 -7
-7 -14 -10 -17 -4 -3 -20 -36 -36 -75 -38 -91 -95 -144 -170 -159 -95 -20
-156 -38 -288 -88 -283 -106 -301 -99 -422 177 -27 60 -92 141 -137 170 -151
97 -187 129 -210 185 -27 63 -16 79 134 198 100 80 150 146 165 222 3 14 5 56
5 93 0 91 -42 180 -110 234 -26 20 -51 40 -55 44 -5 4 -6 16 -3 27 8 23 9 23
106 -3 36 -10 85 -19 110 -20 53 -2 145 20 180 43 76 48 116 49 207 1z m735
-1091 c8 -18 28 -63 43 -101 21 -51 46 -86 102 -145 90 -93 116 -139 117 -209
1 -44 -3 -55 -27 -77 -16 -15 -47 -36 -70 -48 -68 -34 -125 -77 -132 -98 -21
-65 -15 -87 54 -205 50 -86 83 -182 83 -244 0 -58 -26 -115 -97 -210 -99 -131
-102 -151 -35 -280 32 -61 43 -94 42 -123 -1 -22 -4 -44 -8 -49 -3 -5 -7 -18
-9 -28 -11 -60 -91 -137 -170 -164 -98 -34 -298 9 -380 80 -27 23 -60 80 -70
118 -5 17 -9 32 -10 35 -4 14 -19 178 -19 200 3 83 26 194 80 380 48 163 59
267 40 375 -22 120 -105 239 -218 310 -50 31 -62 61 -34 84 18 15 151 21 191
9 50 -16 213 -17 263 -1 144 43 214 167 221 391 1 20 6 32 15 32 7 0 20 -15
28 -32z"/>
</g>
</svg>
